<svg width="195" height="38" viewBox="0 0 195 38" fill="none" xmlns="http://www.w3.org/2000/svg">
<path d="M17.6484 16.6758H6.39844V24.293H19.6016V29H0.539062V0.5625H19.5625V5.30859H6.39844V12.0859H17.6484V16.6758ZM34.9141 29C34.6536 28.4922 34.4648 27.8607 34.3477 27.1055C32.9805 28.6289 31.2031 29.3906 29.0156 29.3906C26.9453 29.3906 25.2266 28.7917 23.8594 27.5938C22.5052 26.3958 21.8281 24.8854 21.8281 23.0625C21.8281 20.8229 22.6549 19.1042 24.3086 17.9062C25.9753 16.7083 28.3776 16.1029 31.5156 16.0898H34.1133V14.8789C34.1133 13.9023 33.8594 13.1211 33.3516 12.5352C32.8568 11.9492 32.069 11.6562 30.9883 11.6562C30.0378 11.6562 29.2891 11.8841 28.7422 12.3398C28.2083 12.7956 27.9414 13.4206 27.9414 14.2148H22.2969C22.2969 12.9909 22.6745 11.8581 23.4297 10.8164C24.1849 9.77474 25.2526 8.96094 26.6328 8.375C28.013 7.77604 29.5625 7.47656 31.2812 7.47656C33.8854 7.47656 35.9492 8.13411 37.4727 9.44922C39.0091 10.7513 39.7773 12.5872 39.7773 14.957V24.1172C39.7904 26.1224 40.0703 27.6393 40.6172 28.668V29H34.9141ZM30.2461 25.0742C31.0794 25.0742 31.8477 24.8919 32.5508 24.5273C33.2539 24.1497 33.7747 23.6484 34.1133 23.0234V19.3906H32.0039C29.1784 19.3906 27.6745 20.3672 27.4922 22.3203L27.4727 22.6523C27.4727 23.3555 27.7201 23.9349 28.2148 24.3906C28.7096 24.8464 29.3867 25.0742 30.2461 25.0742ZM55.5586 23.1602C55.5586 22.4701 55.2135 21.9297 54.5234 21.5391C53.8464 21.1354 52.7526 20.7773 51.2422 20.4648C46.2161 19.4102 43.7031 17.2747 43.7031 14.0586C43.7031 12.1836 44.4779 10.6211 46.0273 9.37109C47.5898 8.10807 49.6276 7.47656 52.1406 7.47656C54.8229 7.47656 56.9648 8.10807 58.5664 9.37109C60.181 10.6341 60.9883 12.2747 60.9883 14.293H55.3438C55.3438 13.4857 55.0833 12.8216 54.5625 12.3008C54.0417 11.7669 53.2279 11.5 52.1211 11.5C51.1706 11.5 50.4349 11.7148 49.9141 12.1445C49.3932 12.5742 49.1328 13.1211 49.1328 13.7852C49.1328 14.4102 49.4258 14.918 50.0117 15.3086C50.6107 15.6862 51.6133 16.0182 53.0195 16.3047C54.4258 16.5781 55.6107 16.8906 56.5742 17.2422C59.556 18.3359 61.0469 20.2305 61.0469 22.9258C61.0469 24.8529 60.2201 26.4154 58.5664 27.6133C56.9128 28.7982 54.7773 29.3906 52.1602 29.3906C50.3893 29.3906 48.8138 29.0781 47.4336 28.4531C46.0664 27.8151 44.9922 26.9492 44.2109 25.8555C43.4297 24.7487 43.0391 23.5573 43.0391 22.2812H48.3906C48.4427 23.2839 48.8138 24.0521 49.5039 24.5859C50.194 25.1198 51.1185 25.3867 52.2773 25.3867C53.3581 25.3867 54.1719 25.1849 54.7188 24.7812C55.2786 24.3646 55.5586 23.8242 55.5586 23.1602ZM72.5898 21.0117L76.4961 7.86719H82.5508L74.0547 32.2812L73.5859 33.3945C72.3229 36.1549 70.2396 37.5352 67.3359 37.5352C66.5156 37.5352 65.6823 37.4115 64.8359 37.1641V32.8867L65.6953 32.9062C66.763 32.9062 67.5573 32.7435 68.0781 32.418C68.612 32.0924 69.0286 31.5521 69.3281 30.7969L69.9922 29.0586L62.5898 7.86719H68.6641L72.5898 21.0117Z" fill="#04BD70"/>
<path d="M92.8047 0.5625L100.109 21.1875L107.375 0.5625H115.07V29H109.191V21.2266L109.777 7.80859L102.102 29H98.0781L90.4219 7.82812L91.0078 21.2266V29H85.1484V0.5625H92.8047ZM118.938 18.2383C118.938 16.1419 119.341 14.2734 120.148 12.6328C120.956 10.9922 122.115 9.72266 123.625 8.82422C125.148 7.92578 126.913 7.47656 128.918 7.47656C131.77 7.47656 134.094 8.34896 135.891 10.0938C137.701 11.8385 138.71 14.2083 138.918 17.2031L138.957 18.6484C138.957 21.8906 138.052 24.4948 136.242 26.4609C134.432 28.4141 132.004 29.3906 128.957 29.3906C125.91 29.3906 123.475 28.4141 121.652 26.4609C119.842 24.5078 118.938 21.8516 118.938 18.4922V18.2383ZM124.582 18.6484C124.582 20.6536 124.96 22.1901 125.715 23.2578C126.47 24.3125 127.551 24.8398 128.957 24.8398C130.324 24.8398 131.392 24.319 132.16 23.2773C132.928 22.2227 133.312 20.543 133.312 18.2383C133.312 16.2721 132.928 14.7487 132.16 13.668C131.392 12.5872 130.311 12.0469 128.918 12.0469C127.538 12.0469 126.47 12.5872 125.715 13.668C124.96 14.7357 124.582 16.3958 124.582 18.6484ZM149.191 2.67188V7.86719H152.805V12.0078H149.191V22.5547C149.191 23.3359 149.341 23.8958 149.641 24.2344C149.94 24.5729 150.513 24.7422 151.359 24.7422C151.984 24.7422 152.538 24.6966 153.02 24.6055V28.8828C151.913 29.2214 150.773 29.3906 149.602 29.3906C145.643 29.3906 143.625 27.3919 143.547 23.3945V12.0078H140.461V7.86719H143.547V2.67188H149.191ZM154.484 18.2383C154.484 16.1419 154.888 14.2734 155.695 12.6328C156.503 10.9922 157.661 9.72266 159.172 8.82422C160.695 7.92578 162.46 7.47656 164.465 7.47656C167.316 7.47656 169.641 8.34896 171.438 10.0938C173.247 11.8385 174.257 14.2083 174.465 17.2031L174.504 18.6484C174.504 21.8906 173.599 24.4948 171.789 26.4609C169.979 28.4141 167.551 29.3906 164.504 29.3906C161.457 29.3906 159.022 28.4141 157.199 26.4609C155.389 24.5078 154.484 21.8516 154.484 18.4922V18.2383ZM160.129 18.6484C160.129 20.6536 160.507 22.1901 161.262 23.2578C162.017 24.3125 163.098 24.8398 164.504 24.8398C165.871 24.8398 166.939 24.319 167.707 23.2773C168.475 22.2227 168.859 20.543 168.859 18.2383C168.859 16.2721 168.475 14.7487 167.707 13.668C166.939 12.5872 165.858 12.0469 164.465 12.0469C163.085 12.0469 162.017 12.5872 161.262 13.668C160.507 14.7357 160.129 16.3958 160.129 18.6484ZM189.426 23.1602C189.426 22.4701 189.081 21.9297 188.391 21.5391C187.714 21.1354 186.62 20.7773 185.109 20.4648C180.083 19.4102 177.57 17.2747 177.57 14.0586C177.57 12.1836 178.345 10.6211 179.895 9.37109C181.457 8.10807 183.495 7.47656 186.008 7.47656C188.69 7.47656 190.832 8.10807 192.434 9.37109C194.048 10.6341 194.855 12.2747 194.855 14.293H189.211C189.211 13.4857 188.951 12.8216 188.43 12.3008C187.909 11.7669 187.095 11.5 185.988 11.5C185.038 11.5 184.302 11.7148 183.781 12.1445C183.26 12.5742 183 13.1211 183 13.7852C183 14.4102 183.293 14.918 183.879 15.3086C184.478 15.6862 185.48 16.0182 186.887 16.3047C188.293 16.5781 189.478 16.8906 190.441 17.2422C193.423 18.3359 194.914 20.2305 194.914 22.9258C194.914 24.8529 194.087 26.4154 192.434 27.6133C190.78 28.7982 188.645 29.3906 186.027 29.3906C184.257 29.3906 182.681 29.0781 181.301 28.4531C179.934 27.8151 178.859 26.9492 178.078 25.8555C177.297 24.7487 176.906 23.5573 176.906 22.2812H182.258C182.31 23.2839 182.681 24.0521 183.371 24.5859C184.061 25.1198 184.986 25.3867 186.145 25.3867C187.225 25.3867 188.039 25.1849 188.586 24.7812C189.146 24.3646 189.426 23.8242 189.426 23.1602Z" fill="#FFFEFE"/>
</svg>
